<?xml version="1.0" encoding="UTF-8"?>
<!DOCTYPE svg PUBLIC "-//W3C//DTD SVG 1.1//EN" "http://www.w3.org/Graphics/SVG/1.1/DTD/svg11.dtd">
<!-- Creator: CorelDRAW 2020 (64-Bit) -->
<svg xmlns="http://www.w3.org/2000/svg" xml:space="preserve" width="86mm" height="77.2582mm" version="1.1" style="shape-rendering:geometricPrecision; text-rendering:geometricPrecision; image-rendering:optimizeQuality; fill-rule:evenodd; clip-rule:evenodd"
viewBox="0 0 8600 7725.82"
 xmlns:xlink="http://www.w3.org/1999/xlink"
 xmlns:xodm="http://www.corel.com/coreldraw/odm/2003">
 <defs>
  <style type="text/css">
   <![CDATA[
    .fil1 {fill:#2B2A29}
    .fil0 {fill:#2B2A29;fill-rule:nonzero}
   ]]>
  </style>
 </defs>
 <g id="Слой_x0020_1">
  <metadata id="CorelCorpID_0Corel-Layer"/>
  <path class="fil0" d="M2170.91 183.6c420.86,-242.81 1038.23,-29.52 1696.86,511.67 141.82,116.56 286.1,248.64 431.1,394.69 145.34,-146.33 289.98,-278.59 431.8,-395.25 657.93,-540.78 1275.29,-753.82 1695.8,-510.93l0.35 0.42c420.51,242.85 544.69,883.99 405.34,1724.27 -29.98,181.16 -72.32,372.29 -126.29,571.15 199.32,52.64 385.94,111.66 557.74,176.25 797.28,299.4 1290.81,727.46 1290.81,1213.13l0 0.43c0,485.77 -493.18,913.84 -1290.46,1213.21 -171.8,64.58 -358.77,123.59 -558.09,176.25 53.97,198.71 96.31,389.73 126.29,570.83 139.35,840.81 15.17,1482.33 -405.34,1725.18 -420.51,242.84 -1038.22,29.54 -1696.51,-511.66 -141.81,-116.57 -286.1,-248.63 -431.44,-394.7 -145.35,146.33 -289.63,278.61 -431.8,395.28 -657.58,540.75 -1274.94,753.8 -1695.81,510.91l0 -0.42c-420.86,-242.85 -544.69,-883.99 -405.34,-1724.27 29.99,-181.15 72.32,-372.28 126.3,-571.14 -199.32,-52.66 -385.94,-111.68 -558.1,-176.24 -797.28,-299.42 -1290.42,-727.48 -1290.42,-1213.16l-0.25 -0.39c0,-485.78 493.04,-913.87 1290.32,-1213.24 172.15,-64.59 358.77,-123.58 558.45,-176.25 -53.98,-198.72 -96.31,-389.71 -126.3,-570.83 -139.7,-840.81 -15.52,-1482.33 404.99,-1725.19zm2300.46 1086.21c260.35,280.84 521.06,604.87 772.24,963.96 436.38,37.92 847.01,101.6 1220.25,186.48 52.57,-192.58 93.49,-377.51 122.42,-552.59 122.06,-734.91 37.04,-1282.24 -283.99,-1467.91l0 0.21c-321.38,-185.45 -838.2,14.57 -1413.93,487.86 -136.88,112.57 -276.58,240.42 -416.99,381.99zm-345.01 5198.88c-260,-280.83 -520.7,-604.85 -771.88,-963.95 -436.74,-37.94 -847.37,-101.59 -1220.61,-186.49 -52.21,192.6 -93.49,377.53 -122.41,552.61 -121.71,734.89 -36.69,1282.22 284.33,1467.91l0 -0.21c321.03,185.45 837.85,-14.57 1413.58,-487.85 137.24,-112.6 276.58,-240.44 416.99,-382.02zm-2164.65 -1448.98c113.25,-365.47 263.53,-752.92 448.74,-1149.86 -185.56,-397.19 -335.85,-785.04 -448.74,-1150.94 -192.97,50.84 -373.59,107.81 -539.39,170.11 -697.8,262.01 -1129.6,609.53 -1129.6,980.41l0 0c0.35,370.8 431.8,718.16 1129.24,980.04 166.16,62.39 346.78,119.38 539.75,170.24zm590.55 -1441.4c88.9,-176 184.15,-353.27 286.46,-530.75l9.17 -16.33c105.83,-182.88 214.49,-359.66 325.97,-529.7 -344.31,37.01 -669.93,90.52 -969.79,158.18 91.37,293.45 207.79,601.95 348.19,918.6zm802.57 -1344.36c251.18,-359.24 511.53,-683.3 771.88,-964.07 -140.76,-141.89 -280.46,-269.91 -417.69,-382.63 -575.38,-472.86 -1091.85,-672.6 -1412.87,-487.11 -321.38,185.45 -406.4,732.58 -284.69,1467.2 28.92,175.12 70.2,360.15 122.76,552.91 372.89,-84.84 783.87,-148.41 1220.61,-186.3zm3281.54 484.86c-113.24,365.47 -263.52,752.93 -448.73,1149.87 185.21,397.2 335.49,785.01 448.73,1150.92 192.97,-50.85 373.24,-107.79 539.4,-170.12 697.79,-262 1129.24,-609.53 1129.24,-980.37l0.35 0c-0.35,-370.81 -431.8,-718.19 -1129.24,-980.05 -166.16,-62.41 -346.78,-119.42 -539.75,-170.25zm-590.55 1441.41c-88.9,175.99 -184.5,353.23 -286.45,530.67l-9.53 16.39c-105.48,182.88 -214.49,359.67 -325.61,529.7 344.31,-37 669.57,-90.53 969.78,-158.18 -91.72,-293.45 -208.14,-601.95 -348.19,-918.58zm-802.57 1344.34c-251.18,359.24 -511.88,683.29 -771.88,964.08 140.76,141.89 280.46,269.91 417.69,382.63 575.03,472.86 1091.5,672.59 1412.88,487.12 321.03,-185.47 406.4,-732.61 284.69,-1467.23 -29.28,-175.12 -70.2,-360.14 -122.77,-552.89 -373.24,84.84 -784.22,148.42 -1220.61,186.29zm-944.38 783.69c208.84,-225.98 417.69,-481.02 621.94,-760.69 -202.84,11.39 -410.28,17.28 -621.59,17.28l-0.35 0.24c-210.96,0.01 -418.4,-5.92 -621.25,-17.3 204.26,279.65 413.11,534.61 621.25,760.47zm806.45 -1022.23c147.1,-215.58 290.69,-443.63 428.62,-682.5l0.71 -1.16c137.93,-238.92 263.87,-477.35 376.76,-712.55 -113.24,-235.51 -239.18,-474.27 -377.47,-713.63 -137.93,-239.25 -281.87,-467.64 -428.98,-683.51 -260.35,-19.58 -529.87,-29.81 -806.09,-29.84l0 -0.21c-276.23,0 -545.75,10.26 -806.45,29.88 -146.76,215.44 -290.34,443.37 -428.28,682.06l-0.7 1.58c-137.94,238.94 -263.88,477.35 -377.12,712.58 113.24,235.48 239.54,474.27 377.47,713.61 138.29,239.25 281.87,467.66 429.33,683.53 260.35,19.55 529.87,29.81 806.1,29.82l0 0.23c276.22,0 545.75,-10.28 806.1,-29.89zm940.85 -1687.88c140.06,-316.48 256.47,-624.91 347.84,-918.39 -299.86,-67.56 -625.12,-121.04 -969.08,-157.97 111.13,169.96 220.14,346.64 325.62,529.41 105.48,182.84 204.26,365.55 295.62,546.95zm-1747.3 -2127.89c-208.5,225.99 -417.69,481.01 -621.6,760.7 202.85,-11.36 410.28,-17.25 621.6,-17.29l0.35 -0.21c210.96,-0.04 418.39,5.89 620.89,17.28 -203.91,-279.64 -412.75,-534.59 -621.24,-760.48zm-1747.31 2710.11c-140.05,316.5 -256.12,624.92 -347.49,918.42 299.51,67.55 624.77,121 969.08,157.96 -111.48,-169.97 -220.13,-346.66 -325.61,-529.43 -105.83,-182.84 -204.26,-365.54 -295.98,-546.95z"/>
  <path class="fil1" d="M3901.17 3180.43c380.29,-219.64 866.78,-89.33 1086.56,291.11 219.78,380.43 89.25,866.91 -291.05,1086.55 -380.64,219.65 -867.12,89.3 -1086.55,-291.14 -219.78,-380.44 -89.25,-866.88 291.04,-1086.52z"/>
 </g>
</svg>
