<?xml version="1.0" encoding="UTF-8"?>
<!DOCTYPE svg PUBLIC "-//W3C//DTD SVG 1.1//EN" "http://www.w3.org/Graphics/SVG/1.1/DTD/svg11.dtd">
<!-- Creator: CorelDRAW 2020 (64-Bit) -->
<svg xmlns="http://www.w3.org/2000/svg" xml:space="preserve" width="30.6916mm" height="73.025mm" version="1.1" style="shape-rendering:geometricPrecision; text-rendering:geometricPrecision; image-rendering:optimizeQuality; fill-rule:evenodd; clip-rule:evenodd"
viewBox="0 0 3069.16 7302.5"
 xmlns:xlink="http://www.w3.org/1999/xlink"
 xmlns:xodm="http://www.corel.com/coreldraw/odm/2003">
 <defs>
  <style type="text/css">
   <![CDATA[
    .fil0 {fill:#2B2A29}
   ]]>
  </style>
 </defs>
 <g id="Слой_x0020_1">
  <metadata id="CorelCorpID_0Corel-Layer"/>
  <path class="fil0" d="M1545.51 1578.19c503.34,-356.2 1066.75,-954.13 1066.49,-1551.98l0.05 -4.16 451.49 0 0 90.73c-13.64,313.66 -101.16,577.82 -234.83,806.88l-7 11.81c-210.42,354.33 -531.57,624.46 -860.06,864.1l-417.37 295.1c-699.84,485.52 -1047.86,960.68 -1084.92,1434.92l1753.78 0 0 242.54 -1745.74 0c59.64,417.04 354.47,834.6 857.25,1259.05l-360.94 265.69 1.01 1.35c-500,-388.46 -950.32,-871.02 -950.32,-1647.31 0,-888.33 586.12,-1392.24 1168.46,-1810.45l362.65 -258.27zm931.12 5155.98l-1513.69 0 145.52 -242.55 1226.21 0c-153.86,-225.65 -356.87,-434.87 -569.77,-611.34l367.13 -253.56c477.75,372.68 900.12,832.48 931.51,1554.37l0 90.57 -451.5 0 -0.04 -3.98c0,-179.34 -50.48,-359.37 -135.37,-533.51zm-53.52 -2388.36l-1400.56 0 145.52 242.53 1074.2 0c-177.46,207.37 -411.5,412.41 -698,615.16l-425.03 300.66c-331.6,242.41 -654.9,516.28 -863.41,877.08l-17.81 31.67c-132.99,241.14 -214.81,520.74 -214.81,854.78l0.05 3.97 453.36 0 0.05 -3.98c-4.3,-675.82 521.47,-1164.73 1029.04,-1529.06l399.01 -281.33c563.16,-404.44 1122.49,-888.8 1158.82,-1723.81l0 -173.14c-31.57,-725.52 -456.67,-1185.26 -937.42,-1558.96l-10.38 7.69 -346.38 250.01c189.01,149.83 346.01,298.59 472.46,446.3l-1060.52 0 -194.02 242.54 1435.53 0c303.43,477.06 289.43,942.97 0.3,1397.89zm-1840.01 -3824.97l1563.95 0 -145.52 242.54 -1288.62 0c158.97,248 380.34,467.07 607.29,650.24l-359.95 256.57c-498.14,-387.98 -937.04,-869.95 -937.04,-1643.98l0.06 -4.16 453.35 0 0.05 4.16c0,173.18 39.36,338.53 106.43,494.63z"/>
 </g>
</svg>
