<?xml version="1.0" encoding="UTF-8"?>
<!DOCTYPE svg PUBLIC "-//W3C//DTD SVG 1.1//EN" "http://www.w3.org/Graphics/SVG/1.1/DTD/svg11.dtd">
<!-- Creator: CorelDRAW 2020 (64-Bit) -->
<svg xmlns="http://www.w3.org/2000/svg" xml:space="preserve" width="59.9722mm" height="39.8638mm" version="1.1" style="shape-rendering:geometricPrecision; text-rendering:geometricPrecision; image-rendering:optimizeQuality; fill-rule:evenodd; clip-rule:evenodd"
viewBox="0 0 5997.22 3986.38"
 xmlns:xlink="http://www.w3.org/1999/xlink"
 xmlns:xodm="http://www.corel.com/coreldraw/odm/2003">
 <defs>
  <style type="text/css">
   <![CDATA[
    .fil0 {fill:#2B2A29}
   ]]>
  </style>
 </defs>
 <g id="Слой_x0020_1">
  <metadata id="CorelCorpID_0Corel-Layer"/>
  <path class="fil0" d="M207.74 929.64l2774.98 -918.67 26.58 -9.39 26.59 9.39 2775 918.67c123.26,40.78 184,130.15 175.29,216.4 1.09,5.96 1.13,11.78 0.07,17.43 0.53,6.04 0.78,12.13 0.78,18.28l0 1213.79c0,121.89 -99.7,221.58 -221.58,221.58l0 0c-121.89,0 -221.62,-99.69 -221.62,-221.58l0 -978.98 -2507.94 842.33c-12.75,6.61 -37.65,5.51 -53.17,0l-2775.01 -932.01c-92.16,-30.95 -147.08,-84.97 -167.25,-144.17 -7.77,-11.37 -10.38,-23.72 -8.03,-36.67 -8.71,-86.24 52.04,-175.6 175.31,-216.4zm5557.71 2254.69l0 0c121.88,0 221.58,99.71 221.58,221.58l0 358.86c0,121.87 -99.7,221.59 -221.58,221.59l0 0c-121.89,0 -221.62,-99.72 -221.62,-221.59l0 -358.86c0,-121.87 99.73,-221.58 221.62,-221.58z"/>
  <path class="fil0" d="M4672.72 2027.17l0 876.74c0,55.95 -40.89,115.86 -90.81,133.19l-1620.17 561.46 -1620.18 -561.46c-49.94,-17.33 -90.8,-77.24 -90.8,-133.19l0 -891.06 1733.49 551.18 1688.47 -536.86z"/>
 </g>
</svg>
