<svg xmlns="http://www.w3.org/2000/svg" xmlns:xlink="http://www.w3.org/1999/xlink" xmlns:xodm="http://www.corel.com/coreldraw/odm/2003" xml:space="preserve" width="84.8432mm" height="84.8432mm" version="1.1" style="shape-rendering:geometricPrecision; text-rendering:geometricPrecision; image-rendering:optimizeQuality; fill-rule:evenodd; clip-rule:evenodd" viewBox="0 0 8493.13 8493.13">
 <defs>
  <style type="text/css">
   <![CDATA[
    .str0 {stroke:#2B2A29;stroke-width:100.1;stroke-miterlimit:22.9256}
    .fil0 {fill:none;fill-rule:nonzero}
    .fil2 {fill:#2B2A29}
    .fil1 {fill:#2B2A29;fill-rule:nonzero}
   ]]>
  </style>
 </defs>
    <g id="Слой_x0020_1">
  <metadata id="CorelCorpID_0Corel-Layer"/>
        <polygon class="fil0 str0" points="689,1309.31 7809.76,1309.31 7809.76,8430.04 689,8430.04 "/>
        <path class="fil1" d="M4246.56 0c1172.64,0 2234.28,475.32 3002.77,1243.79 768.47,768.5 1243.79,1830.13 1243.79,3002.77 0,1172.64 -475.32,2234.29 -1243.79,3002.77 -768.5,768.48 -1830.14,1243.79 -3002.77,1243.79 -1172.64,0 -2234.29,-475.31 -3002.77,-1243.79 -768.48,-768.49 -1243.79,-1830.14 -1243.79,-3002.77 0,-1172.65 475.31,-2234.28 1243.79,-3002.77 768.49,-768.47 1830.14,-1243.79 3002.77,-1243.79zm2933.04 1313.52c-750.62,-750.6 -1787.62,-1214.89 -2933.04,-1214.89 -1145.43,0 -2182.42,464.29 -2933.04,1214.89 -750.61,750.62 -1214.89,1787.62 -1214.89,2933.04 0,1145.43 464.28,2182.42 1214.89,2933.04 750.62,750.61 1787.61,1214.89 2933.04,1214.89 1145.42,0 2182.42,-464.28 2933.04,-1214.89 750.6,-750.62 1214.89,-1787.61 1214.89,-2933.04 0,-1145.42 -464.29,-2182.42 -1214.89,-2933.04z"/>
        <path class="fil2" d="M4210.35 6588.03l-190.48 1525.05c-10.55,88.25 -52.22,171.26 -117.06,232.12 -65.31,61.28 -149.69,96.52 -239.69,96.52 -91.07,0 -179.21,-37.21 -241.76,-103.63 -46.31,-49.12 -75.54,-110.5 -85.38,-176.24l-4.02 0 0 -50.06c0,-6.96 0.39,-13.98 0.82,-20.93l91.42 -1414.03 -860.13 1095.08c-55.4,70.54 -134.94,120.12 -222.74,138.54 -145.65,30.6 -297.23,-15.39 -377.12,-146.54 -71.49,-117.4 -56.51,-258.31 18.67,-369.92l1467.73 -2179.01 -31.54 -1271.19c-1.35,-54.8 -29.9,-121.68 -66.28,-162.06 -30.63,-34 -68.95,-52.03 -114.41,-55.31l-2195.96 0c-91.47,0 -178.55,-36.35 -243.2,-100.99 -64.65,-64.66 -101.01,-151.75 -101.01,-243.23 0,-91 35.85,-176.66 100.1,-240.91 63.96,-63.97 150.29,-100.24 240.55,-102.98l1531.61 -33.42 -1367.92 -1039.4c-105.82,-65.96 -156.84,-191.59 -148.5,-313.28 3.38,-49.32 16.42,-98.24 39.18,-142.19 24.8,-47.83 60.4,-88.77 105.57,-118.41 118.89,-78.03 260.52,-56.73 382.69,1.46l1911.74 1353.11c201.78,96.12 496.27,121.85 717.56,122.01 219.52,0.15 543.04,-25.96 743.4,-120.88l1933.42 -1360.49c123.77,-58.61 268.11,-80.52 388.52,-1.57 45.16,29.6 80.85,70.45 105.59,118.28 22.88,44.23 35.72,93.53 38.6,143.18 7.12,123.21 -47.88,247.36 -154.72,313.04l-1400.19 1061.5 1589.86 17.07c89.91,3.21 175.85,39.65 239.56,103.36l0.3 0.3c64.09,64.1 99.94,149.39 99.94,240.22 0,116.28 -98.68,197.34 -193.35,246.5 -94.5,49.08 -244.83,96.06 -350.47,96.06l-2032.58 0 -30.53 1.34c-47.78,2.09 -88.15,20.04 -120.23,55.64 -36.38,40.38 -64.92,107.26 -66.29,162.06l-31.53 1271.19 1467.74 2179.01c42.09,62.5 63.83,144.43 63.83,219.56 0,226.22 -219.07,339.58 -422.28,296.91 -87.81,-18.42 -167.35,-68 -222.75,-138.54l-860.13 -1095.08 91.43 1414.03c0.43,6.95 0.81,13.97 0.81,20.93l0 50.06 -4.01 0c-9.85,65.74 -39.09,127.12 -85.39,176.24 -57.83,61.41 -136.29,97.51 -220.38,102.79 -7.1,0.46 -14.27,0.84 -21.37,0.84 -90.01,0 -174.39,-35.24 -239.69,-96.52 -64.83,-60.85 -106.52,-143.87 -117.07,-232.12l-190.47 -1525.05zm39.03 -5185.41c163.65,0 319.26,64.49 434.95,180.17 115.69,115.68 180.17,271.32 180.17,434.96 0,163.64 -64.48,319.26 -180.17,434.95 -115.69,115.69 -271.3,180.17 -434.95,180.17 -163.64,0 -319.26,-64.48 -434.94,-180.19 -115.68,-115.67 -180.17,-271.29 -180.17,-434.93 0,-163.65 64.48,-319.27 180.17,-434.96 115.69,-115.69 271.29,-180.17 434.94,-180.17zm767.37 1599.6c54.09,6.09 27.09,2.82 81.3,7.45 217.03,18.47 197.87,26.71 415.71,24.6l1620.81 -1287.67c28.08,-17.26 38.02,-54.89 36.22,-85.91 -0.84,-14.61 -4.36,-29.48 -11.12,-42.53 -4.87,-9.4 -11.64,-17.82 -20.54,-23.67 -38.45,-25.2 -108.59,1.19 -144.75,18.32l-1977.63 1389.42zm2413.12 242.66c-654.79,-23.36 -1543.1,36.93 -2200.33,-19.01 -183.85,-15.64 -367.78,-32.19 -551.8,-45.73 -129.23,-9.51 -258.46,-17.12 -388.06,-18.83 -146.11,-1.92 -291.57,3.89 -437.39,12.92 -220.46,13.65 -441.03,32.9 -661.13,51.63 -271.97,23.16 -548.94,30.93 -821.73,22.02l-1323.42 40.04c-26.54,0.81 -51.93,11.49 -70.72,30.31 -17.14,17.13 -26.81,39.63 -26.81,63.95 0,25.01 10.06,48.62 27.72,66.27 17.63,17.64 41.24,27.7 66.24,27.7l2296.73 2.69c83.22,19.08 140.96,70.65 199.43,135.55 74.49,82.65 127.36,211.55 130.13,323.37l33.18 1336.98 -119.56 2828.7 -0.19 14.33c1.28,18.29 8.45,35.53 21.16,49.03 13.88,14.73 32.65,23.06 52.7,24.53l7.1 0.11c25.96,0 49.8,-10.76 68.53,-28.34 22.14,-20.76 36.26,-49.45 39.86,-79.52l315.08 -2566.27 0.93 -3.45c29.94,-111.8 220.1,-112.27 246.12,1.82l0.59 2.56 314.98 2565.34c3.59,30.07 17.72,58.76 39.85,79.52 35.14,33 93.13,41.06 128.33,3.7 12.74,-13.54 19.93,-30.85 21.18,-49.2l-0.18 -12.83 -118.74 -2828.77 32.32 -1338.2c2.71,-111.81 55.69,-240.77 130.14,-323.41 64.38,-71.44 124.71,-121.26 216.98,-137.17l2263.08 -2.74c239.28,0 168.05,-226.04 67.71,-229.61zm-4532.09 -231.95c207.19,0.98 278.08,-18.81 484.47,-36.37 61.91,-5.28 74.05,-5.83 135.82,-13.07l-2044.16 -1344.55c-34.17,-16.28 -101.59,-42.06 -138.06,-18.12 -8.94,5.87 -15.72,14.47 -20.58,23.87 -7.03,13.55 -10.73,29.14 -11.78,44.31 -1.9,28.02 5.25,68.08 31.2,84.26l1563.09 1259.68zm2075.92 2655.07l6.43 583.13 1073.11 1366.27c79.3,100.92 265.65,31.13 177.19,-100.18l-1256.73 -1849.22zm-1533.14 583.15l6.43 -583.14 -1256.74 1865.76c-83.06,123.31 75.25,213.39 177.19,83.64l1073.12 -1366.25zm1066.82 -4491.41c-68.67,-68.67 -160.86,-106.87 -258,-106.87 -97.13,0 -189.32,38.2 -257.98,106.87 -68.67,68.68 -106.87,160.86 -106.87,258 0,97.13 38.2,189.31 106.87,257.98 68.66,68.68 160.85,106.88 257.98,106.88 97.14,0 189.33,-38.2 258,-106.88 68.66,-68.67 106.86,-160.85 106.86,-257.98 0,-97.14 -38.19,-189.32 -106.86,-258z"/>
 </g>
</svg>